<?xml version="1.0"?>
<svg xmlns="http://www.w3.org/2000/svg" id="Layer_1" enable-background="new 0 0 512.004 512.004" height="512px" viewBox="0 0 512.004 512.004" width="512px" class=""><g><g><g><path d="m285 512.002c-1.966 0-3.947-.386-5.831-1.182l-90-37.996c-3.853-1.626-6.852-4.788-8.273-8.721-1.421-3.934-1.136-8.282.788-11.996l25.881-49.977-26.395-67.745-70.38-70.38h-95.79c-3.979 0-7.794-1.581-10.607-4.394s-4.393-6.627-4.393-10.605l.003-76c0-4.239 1.793-8.279 4.937-11.123l37.064-33.534v-47.343c0-3.978 1.581-7.793 4.394-10.606s6.628-4.394 10.606-4.394h69l-.002-30.999c0-8.284 6.715-15 14.999-15.001l73.002-.004c3.029 0 5.987.917 8.485 2.63l31.166 21.374h70.351c8.284 0 15 6.716 15 15v42.45l160.646 28.786c7.149 1.281 12.354 7.501 12.354 14.765l-.001 97c0 3.108-.965 6.139-2.763 8.674l-53.831 75.94-6.526 51.279c-.954 7.492-7.328 13.106-14.879 13.106l-54.001.001v26.499c0 3.995-1.593 7.824-4.427 10.64l-80 79.496c-2.868 2.849-6.691 4.36-10.577 4.36z" fill="#bee75e" data-original="#BEE75E" class="" style="fill:#88D498" data-old_color="#bee75e"/></g><path d="m499.65 130.242-160.646-28.786v-42.45c0-4.679-2.144-8.856-5.501-11.607v422.556l42.074-41.809c2.834-2.816 4.427-6.646 4.427-10.64v-26.499l54.001-.001c7.552 0 13.926-5.615 14.879-13.106l6.526-51.279 53.831-75.94c1.797-2.535 2.763-5.566 2.763-8.674l.001-97c-.001-7.264-5.206-13.484-12.355-14.765z" fill="#00cb75" data-original="#00CB75" class="" style="fill:#1A936F" data-old_color="#00cb75"/><g><path d="m333.502 260.002c-25.367 0-55.319-40.564-67.019-58.004-8.91-13.281-37.981-59.526-37.981-96.997 0-57.897 47.103-105 105-105s105 47.103 105 105c0 37.471-29.071 83.715-37.981 96.997-11.7 17.44-41.652 58.004-67.019 58.004z" fill="#ff8856" data-original="#FF8856" class=""/></g><path d="m333.502.002v260c25.367 0 55.319-40.564 67.019-58.004 8.91-13.281 37.981-59.526 37.981-96.997 0-57.897-47.103-104.999-105-104.999z" fill="#ff435b" data-original="#FF435B" class=""/><g><path d="m333.502 150.002c-24.813 0-45-20.187-45-45s20.187-45 45-45 45 20.187 45 45-20.187 45-45 45z" fill="#ffde46" data-original="#FFDE46" class="active-path" style="fill:#F2E7CF" data-old_color="#ffde46"/></g><path d="m333.502 60.001v90c24.813 0 45-20.187 45-45s-20.187-45-45-45z" fill="#ffcd00" data-original="#FFCD00" class="" style="fill:#E1C88E" data-old_color="#ffcd00"/></g></g> </svg>
