<svg id="Capa_1" enable-background="new 0 0 512 512" height="512" viewBox="0 0 512 512" width="512" xmlns="http://www.w3.org/2000/svg"><g><g><g><path d="m362 317c0-15.294 7.662-29.405 20.496-37.748l72.151-46.901c17.127-11.133 27.353-29.956 27.353-50.351 0-33.084-26.916-60-60-60-16.918 0-33.139 7.2-44.501 19.754-5.559 6.143-15.045 6.615-21.187 1.056s-6.615-15.045-1.056-21.187c17.039-18.826 41.366-29.623 66.744-29.623 49.626 0 90 40.374 90 90 0 30.589-15.328 58.815-41.003 75.504l-72.151 46.901c-4.287 2.787-6.846 7.495-6.846 12.595 0 19.853 30 19.828 30 0 0-8.284 6.716-15 15-15s15 6.716 15 15c0 59.559-90 59.485-90 0z" fill="#ff9100"/></g></g><g><g><path d="m60 317c0-8.284 6.716-15 15-15s15 6.716 15 15c0 19.853 30 19.828 30 0 0-5.1-2.559-9.808-6.846-12.595l-72.151-46.901c-25.674-16.69-41.003-44.915-41.003-75.504 0-49.626 40.374-90 90-90 25.378 0 49.705 10.797 66.744 29.624 5.559 6.142 5.086 15.628-1.056 21.187-6.143 5.559-15.627 5.086-21.187-1.056-11.362-12.555-27.583-19.755-44.501-19.755-33.084 0-60 26.916-60 60 0 20.395 10.226 39.217 27.354 50.351l72.151 46.902c12.833 8.342 20.495 22.454 20.495 37.747 0 59.559-90 59.485-90 0z" fill="#fabe2c"/></g></g><path d="m376 452c0 8.28-6.72 15-15 15h-210c-8.28 0-15-6.72-15-15s6.72-15 15-15c33.04 0 59.95-26.87 60-59.9v-28.1h90v28.1c.05 33.03 26.96 59.9 60 59.9 8.28 0 15 6.72 15 15z" fill="#fed843"/><path d="m376 452c0 8.28-6.72 15-15 15h-105v-118h45v28.1c.05 33.03 26.96 59.9 60 59.9 8.28 0 15 6.72 15 15z" fill="#fabe2c"/><g><path d="m391.99 137-135.99 33-135.99-33c0-5.5 3.03-10.72 8.15-13.35l121-62c2.14-1.1 4.49-1.65 6.84-1.65s4.7.55 6.84 1.65l121 62c5.12 2.63 8.15 7.85 8.15 13.35z" fill="#fed843"/><path d="m391.99 137-135.99 33v-110c2.35 0 4.7.55 6.84 1.65l121 62c5.12 2.63 8.15 7.85 8.15 13.35z" fill="#fabe2c"/><path d="m391.23 312.26c2.37 7.1-.86 14.85-7.57 18.18l-120.99 60c-2.1 1.04-4.39 1.56-6.67 1.56s-4.57-.52-6.67-1.56l-120.99-60c-6.71-3.33-9.94-11.08-7.57-18.18 18.32-54.98 18.32-115.54 0-170.52-.52-1.56-.76-3.16-.76-4.74h271.98c0 1.58-.24 3.18-.76 4.74-18.32 54.98-18.32 115.54 0 170.52z" fill="#fabe2c"/><path d="m391.23 312.26c2.37 7.1-.86 14.85-7.57 18.18l-120.99 60c-2.1 1.04-4.39 1.56-6.67 1.56v-255h135.99c0 1.58-.24 3.18-.76 4.74-18.32 54.98-18.32 115.54 0 170.52z" fill="#ff9100"/></g><g><g><path d="m256 0c-24.81 0-45 20.19-45 45s20.19 45 45 45 45-20.19 45-45-20.19-45-45-45z" fill="#fabe2c"/></g></g><path d="m301 45c0 24.81-20.19 45-45 45v-90c24.81 0 45 20.19 45 45z" fill="#ff9100"/><g><path d="m376 437h-240c-8.28 0-15 6.72-15 15v45c0 8.28 6.72 15 15 15h240c8.28 0 15-6.72 15-15v-45c0-8.28-6.72-15-15-15z" fill="#61729b"/></g><path d="m391 452v45c0 8.28-6.72 15-15 15h-120v-75h120c8.28 0 15 6.72 15 15z" fill="#47568c"/></g></svg>