<?xml version="1.0"?>
<svg xmlns="http://www.w3.org/2000/svg" id="Layer_1" enable-background="new 0 0 512 512" height="512px" viewBox="0 0 512 512" width="512px" class=""><g><g><path d="m440 200c0 90.35-65.01 177.87-117.74 234-35.99 38.31-66.26 62-66.26 62s-184-144-184-296c0-58.96 27.73-111.45 70.87-145.13 31.2-24.35 70.47-38.87 113.13-38.87 101.62 0 184 82.38 184 184z" fill="#acebe2" data-original="#ACEBE2" class="" style="fill:#88D498" data-old_color="#acebe2"/><path d="m289.51 466.7c-19.86 18.62-33.51 29.3-33.51 29.3s-184-144-184-296c0-58.96 27.73-111.45 70.87-145.13 12-9.36 25.19-17.27 39.32-23.46-42.75 33.7-70.19 85.94-70.19 144.59 0 134.86 144.85 263.43 177.51 290.7z" fill="#98d7ce" data-original="#98D7CE" class="" style="fill:#1A936F" data-old_color="#98d7ce"/><path d="m368.91 182.73c0 19.85-7.85 37.66-19.42 53.13-32.28 43.2-93.49 68.14-93.49 68.14s-112.91-46-112.91-121.27c0-25.19 15.12-46.91 36.95-56.89 8.19-3.75 17.33-5.84 26.96-5.84 19.68 0 37.28 8.73 49 22.46 11.72-13.73 29.32-22.46 49-22.46 35.3 0 63.91 28.08 63.91 62.73z" fill="#f79caf" data-original="#F79CAF" class="" style="fill:#F3E7CE" data-old_color="#f79caf"/><path d="m337.46 249.9c-33.4 34.52-81.46 54.1-81.46 54.1s-112.91-46-112.91-121.27c0-25.19 15.12-46.91 36.95-56.89 3.2-1.47 6.55-2.68 10.01-3.61-4.45 8.56-6.96 18.24-6.96 28.5 0 75.27 112.91 121.27 112.91 121.27s19.03-7.75 41.46-22.1z" fill="#e3889b" data-original="#E3889B" class="active-path" style="fill:#EBD7AD" data-old_color="#e3889b"/><path d="m256 0c-110.28 0-200 89.72-200 200 0 78.711 45.478 155.186 95.727 215.265 46.548 55.655 92.48 91.823 94.413 93.335 5.792 4.533 13.93 4.533 19.722 0 1.933-1.512 47.865-37.68 94.413-93.335 50.259-60.093 95.725-136.565 95.725-215.265 0-110.28-89.72-200-200-200zm0 475.228c-77.111-65.809-168-174.171-168-275.228 0-92.636 75.364-168 168-168s168 75.364 168 168c0 101.065-90.923 209.449-168 275.228z" data-original="#000000" class="" style="fill:#114B5F" data-old_color="#000000"/><path d="m256 120.531c-13.893-10.639-31.058-16.531-48.998-16.531-44.063 0-79.911 35.317-79.911 78.727 0 85.053 117.855 134.046 122.873 136.09 3.868 1.576 8.203 1.577 12.073 0 5.017-2.044 122.873-51.037 122.873-136.09-.001-65.74-77.028-101.925-128.91-62.196zm0 165.952c-22.071-10.309-96.91-49.293-96.91-103.756 0-25.766 21.493-46.727 47.911-46.727 14.262 0 27.687 6.141 36.832 16.849 6.383 7.474 17.95 7.475 24.333 0 9.146-10.708 22.57-16.849 36.832-16.849 26.418 0 47.911 20.961 47.911 46.727 0 54.466-74.852 93.454-96.909 103.756z" data-original="#000000" class="" style="fill:#114B5F" data-old_color="#000000"/></g></g> </svg>
