<?xml version="1.0"?>
<svg xmlns="http://www.w3.org/2000/svg" id="Layer_1" enable-background="new 0 0 512 512" height="512px" viewBox="0 0 512 512" width="512px"><g><g><path d="m256 0c-110.28 0-200 89.72-200 200 0 78.697 45.439 155.129 95.73 215.27 46.54 55.65 92.48 91.82 94.41 93.33 5.748 4.499 13.885 4.567 19.72 0 1.93-1.51 47.87-37.68 94.41-93.33 50.277-60.124 95.73-136.56 95.73-215.27 0-110.28-89.72-200-200-200zm6.04 318.82c-3.765 1.533-8.117 1.613-12.08 0-5.01-2.05-122.87-51.04-122.87-136.09 0-43.41 35.85-78.73 79.91-78.73 17.94 0 35.11 5.89 49 16.53 13.89-10.64 31.06-16.53 49-16.53 44.06 0 79.91 35.32 79.91 78.73 0 85.05-117.86 134.04-122.87 136.09z" data-original="#000000" class="active-path" data-old_color="#000000" fill="#114B5F"/><path d="m305 136c-14.26 0-27.69 6.14-36.83 16.85-6.383 7.474-17.956 7.476-24.34 0-9.14-10.71-22.57-16.85-36.83-16.85-26.42 0-47.91 20.96-47.91 46.73 0 52.801 70.351 91.051 94.75 102.729 1.369.655 2.951.655 4.32 0 24.392-11.669 94.75-49.928 94.75-102.729 0-25.77-21.49-46.73-47.91-46.73z" data-original="#000000" class="active-path" data-old_color="#000000" fill="#114B5F"/></g></g> </svg>
