<svg enable-background="new 0 0 36 36" height="512" viewBox="0 0 36 36" width="512" xmlns="http://www.w3.org/2000/svg"><path d="m8.114 5.564c-1.805 6.677-6.504 10.327-7.374 13.545s-.847 10.475 13.955 14.477 19.432-4.501 20.388-8.041c4.481-16.572-23.772-31.807-26.969-19.981z" fill="#efefef"/><path d="m27.25 10.22v8.03c0 1.1-.9 2-2 2h-17c-.83 0-1.5-.67-1.5-1.5v-8.53l9.41 4.66c.52.26 1.16.26 1.68 0z" fill="#f3f3f1"/><path d="m27.25 9.25v.97l-9.41 4.66c-.52.26-1.16.26-1.68 0l-9.41-4.66v-.97c0-.83.67-1.5 1.5-1.5h17.5c.83 0 1.5.67 1.5 1.5z" fill="#2fdf84"/><path d="m9 18.75v-7.416l-2.25-1.114v8.53c0 .83.67 1.5 1.5 1.5h2.25c-.83 0-1.5-.67-1.5-1.5z" fill="#d5dbe1"/><path d="m9 9.731v-.481c0-.83.67-1.5 1.5-1.5h-2.25c-.83 0-1.5.67-1.5 1.5v.97l9.41 4.66c.52.26 1.16.26 1.68 0l.285-.63z" fill="#00b871"/><path d="m29.25 28.295c0 .525-.433.955-.962.955h-10.576c-.529 0-.962-.43-.962-.955 0-.181.048-.353.144-.496l5.288-8.591c.163-.277.471-.458.817-.458s.654.181.817.458l5.288 8.591c.098.143.146.315.146.496z" fill="#2fdf84"/><path d="m19 28.295c0-.181.048-.353.144-.496l4.981-8.091-.308-.5c-.163-.277-.471-.458-.817-.458s-.654.181-.817.458l-5.288 8.591c-.096.143-.144.315-.144.496 0 .525.433.955.962.955h2.25c-.53 0-.963-.43-.963-.955z" fill="#00b871"/><g fill="#a4afc1"><path d="m31 23.25c-.827 0-1.5-.673-1.5-1.5s.673-1.5 1.5-1.5 1.5.673 1.5 1.5-.673 1.5-1.5 1.5zm0-2c-.276 0-.5.224-.5.5s.224.5.5.5.5-.224.5-.5-.224-.5-.5-.5z"/><path d="m27.555 2.967h1v2h-1z" transform="matrix(.707 -.707 .707 .707 5.412 21)"/><path d="m31.621 7.033h1v2h-1z" transform="matrix(.707 -.707 .707 .707 3.728 25.066)"/><path d="m30.944 3.467h2v1h-2z" transform="matrix(.707 -.707 .707 .707 6.551 23.75)"/></g><path d="m28.289 30h-10.578c-.943 0-1.711-.765-1.711-1.705 0-.333.094-.649.271-.914l5.273-8.566c.294-.498.855-.815 1.456-.815s1.162.317 1.463.827l5.282 8.579c.162.24.255.556.255.89 0 .939-.768 1.704-1.711 1.704zm-5.289-10.5c-.087 0-.146.046-.172.089l-5.328 8.706c0 .111.097.205.211.205h10.577c.115 0 .211-.094.211-.205 0-.034-.006-.063-.017-.079l-5.304-8.615c-.032-.055-.091-.101-.178-.101z"/><path d="m22.25 22.75h1.5v2.5h-1.5z"/><path d="m18.25 21h-10c-1.241 0-2.25-1.009-2.25-2.25v-9.5c0-1.241 1.009-2.25 2.25-2.25h17.5c1.241 0 2.25 1.009 2.25 2.25v9h-1.5v-9c0-.414-.336-.75-.75-.75h-17.5c-.414 0-.75.336-.75.75v9.5c0 .414.336.75.75.75h10z"/><path d="m17.001 15.827c-.404 0-.808-.092-1.176-.276l-9.408-4.659.666-1.344 9.41 4.66c.313.157.7.156 1.011.001l9.413-4.661.666 1.344-9.41 4.66c-.366.183-.769.275-1.172.275z"/><path d="m22.25 26.188h1.5v.812h-1.5z"/></svg>