<svg enable-background="new 0 0 36 36" height="512" viewBox="0 0 36 36" width="512" xmlns="http://www.w3.org/2000/svg"><path d="m8.114 5.564c-1.805 6.677-6.504 10.327-7.374 13.545s-.847 10.475 13.955 14.477 19.432-4.501 20.388-8.041c4.481-16.572-23.772-31.807-26.969-19.981z" fill="#efefef"/><g fill="#a4afc1"><path d="m5.433 26.216c-.827 0-1.5-.673-1.5-1.5s.673-1.5 1.5-1.5 1.5.673 1.5 1.5-.673 1.5-1.5 1.5zm0-2c-.275 0-.5.224-.5.5s.225.5.5.5.5-.224.5-.5-.225-.5-.5-.5z"/><path d="m25.121 31.023h1v2h-1z" transform="matrix(.707 -.707 .707 .707 -15.139 27.496)"/><path d="m20.379 31.523h2v1h-2z" transform="matrix(.707 -.707 .707 .707 -16.382 24.497)"/></g><path d="m27.25 10.22v8.03c0 1.1-.9 2-2 2h-17c-.83 0-1.5-.67-1.5-1.5v-8.53l9.41 4.66c.52.26 1.16.26 1.68 0z" fill="#f3f3f1"/><path d="m27.25 9.25v.97l-9.41 4.66c-.52.26-1.16.26-1.68 0l-9.41-4.66v-.97c0-.83.67-1.5 1.5-1.5h17.5c.83 0 1.5.67 1.5 1.5z" fill="#2fdf84"/><path d="m9 18.75v-7.416l-2.25-1.114v8.53c0 .83.67 1.5 1.5 1.5h2.25c-.83 0-1.5-.67-1.5-1.5z" fill="#d5dbe1"/><path d="m9 9.731v-.481c0-.83.67-1.5 1.5-1.5h-2.25c-.83 0-1.5.67-1.5 1.5v.97l9.41 4.66c.52.26 1.16.26 1.68 0l.285-.63z" fill="#00b871"/><path d="m26.25 18.75c-1.23 0-2.29.737-2.75 1.793-.46-1.056-1.52-1.793-2.75-1.793-1.655 0-3 1.34-3 2.988 0 3.237 5.75 7.512 5.75 7.512s5.75-4.275 5.75-7.512c0-1.648-1.345-2.988-3-2.988z" fill="#2fdf84"/><path d="m20 21.738c0-1.25.775-2.319 1.871-2.765-.347-.14-.723-.223-1.121-.223-1.655 0-3 1.34-3 2.988 0 3.237 5.75 7.512 5.75 7.512s.466-.349 1.125-.912c-1.673-1.429-4.625-4.277-4.625-6.6z" fill="#00b871"/><path d="m23.5 30c-.157 0-.314-.049-.447-.148-.62-.461-6.053-4.602-6.053-8.114 0-2.061 1.683-3.738 3.75-3.738 1.063 0 2.054.446 2.75 1.194.696-.748 1.687-1.194 2.75-1.194 2.067 0 3.75 1.677 3.75 3.738 0 3.512-5.433 7.653-6.053 8.114-.133.099-.29.148-.447.148zm-2.75-10.5c-1.24 0-2.25 1.004-2.25 2.238 0 2.138 3.276 5.19 5 6.564 1.724-1.374 5-4.426 5-6.564 0-1.234-1.01-2.238-2.25-2.238-.897 0-1.707.527-2.062 1.342-.238.548-1.137.548-1.375 0-.356-.815-1.166-1.342-2.063-1.342z"/><path d="m15.25 21h-7c-1.24 0-2.25-1.009-2.25-2.25v-9.5c0-1.241 1.01-2.25 2.25-2.25h17.5c1.24 0 2.25 1.009 2.25 2.25v7h-1.5v-7c0-.414-.337-.75-.75-.75h-17.5c-.413 0-.75.336-.75.75v9.5c0 .414.337.75.75.75h7z"/><path d="m17.001 15.827c-.404 0-.809-.092-1.177-.277l-9.407-4.658.666-1.344 9.41 4.66c.31.155.705.155 1.011.001l9.413-4.661.666 1.344-9.41 4.66c-.366.183-.769.275-1.172.275z"/></svg>